#N canvas 827 239 527 327 12;
#X obj 571 840 readsf~;
#X obj 640 680 file join;
#X obj 663 449 symbol;
#X msg 579 727 start;
#X obj 640 727 t b s;
#X msg 555 772 open \$1.wav;
#X obj 571 897 outlet~;
#X obj 863 594 inlet samples-path;
#X obj 663 415 inlet soundbank;
#X obj 778 415 inlet soundname;
#X obj 778 449 i;
#X obj 640 632 pack s s f;
#X obj 602 508 t b b s;
#X obj 665 824 print;
#X connect 0 0 6 0;
#X connect 1 0 4 0;
#X connect 2 0 12 0;
#X connect 3 0 0 0;
#X connect 4 1 5 0;
#X connect 5 0 0 0;
#X connect 5 0 13 0;
#X connect 7 0 11 0;
#X connect 8 0 2 0;
#X connect 9 0 10 0;
#X connect 10 0 11 2;
#X connect 11 0 1 0;
#X connect 12 0 3 0;
#X connect 12 1 11 0;
#X connect 12 2 11 1;
