#N canvas 827 239 527 327 12;
#X declare -path ./abstractions;
#X obj 226 210 netreceive -u -b;
#X msg 226 133 listen 7000;
#X obj 226 288 list trim;
#X obj 226 248 oscparse;
#X obj 226 325 route pd;
#X obj 226 484 route s;
#X obj 488 339 route offset;
#X msg -262 473 ~/Documents/tidal-cycles/pure-tides/samples;
#X obj 105 1013 output~;
#X obj 209 30 declare -path ./abstractions;
#X obj 47 664 pdcyc-sound;
#X obj -262 443 loadbang;
#X obj 119 834 output~;
#X obj 347 484 route n;
#X obj 552 487 trigger;
#X obj 105 352 route bang;
#X obj 105 383 bng 25 250 50 0 empty empty empty 17 7 0 10 #e4e4e4 #4d4d4d #373737;
#X obj 226 396 trigger b b b b b b b b b b b b b b b b b b b b b b b b b b b b b b b;
#X obj 226 352 s msg;
#X obj 226 455 r msg;
#X obj 347 455 r msg;
#X obj 347 515 i;
#X obj 285 455 bng 25 250 50 0 empty empty empty 17 7 0 10 #e4e4e4 #4d4d4d #373737;
#X obj 408 455 bng 25 250 50 0 empty empty empty 17 7 0 10 #e4e4e4 #4d4d4d #373737;
#X obj 105 420 delay 50;
#X obj 285 638 value;
#X obj 226 523 message;
#X obj -113 137 notein;
#X floatatom -163 200 5 0 0 0 - - - 12;
#X floatatom -113 200 5 0 0 0 - - - 12;
#X floatatom -58 200 5 0 0 0 - - - 12;
#X obj -313 137 ctlin;
#X floatatom -352 193 5 0 0 0 - - - 12;
#X floatatom -302 193 5 0 0 0 - - - 12;
#X floatatom -247 193 5 0 0 0 - - - 12;
#X connect 0 0 3 0;
#X connect 1 0 0 0;
#X connect 2 0 4 0;
#X connect 3 0 2 0;
#X connect 4 0 15 0;
#X connect 4 0 18 0;
#X connect 5 0 26 1;
#X connect 7 0 10 2;
#X connect 10 0 12 0;
#X connect 10 0 12 1;
#X connect 11 0 7 0;
#X connect 13 0 21 1;
#X connect 15 0 16 0;
#X connect 16 0 24 0;
#X connect 17 29 22 0;
#X connect 17 30 23 0;
#X connect 19 0 5 0;
#X connect 20 0 13 0;
#X connect 21 0 10 1;
#X connect 22 0 26 0;
#X connect 23 0 21 0;
#X connect 24 0 17 0;
#X connect 26 0 10 0;
#X connect 27 0 28 0;
#X connect 27 1 29 0;
#X connect 27 2 30 0;
#X connect 31 0 32 0;
#X connect 31 1 33 0;
#X connect 31 2 34 0;
